<svg viewBox="0 0 414 78" fill="none" xmlns="http://www.w3.org/2000/svg">
<defs><style type="text/css"><![CDATA[
.colorA { fill: #005EB8; } .colorB { fill: #003B5C; }
@media (prefers-color-scheme: dark) { .colorA { fill: #00A3E0; } .colorB { fill: #B9D9EB; }
}
]]>
</style></defs>
<path d="M246 25.5c0 5.385-1.321 9.239-4.049 12.128C239.247 40.494 235.631 42 230.5 42H228v18h-9.5V9h13c9.846 0 14.5 6.1 14.5 16.5Zm-18 8h2c2.311 0 3.677-.39 4.81-1.662 1.132-1.27 1.69-3.449 1.69-6.338 0-2.658-.512-4.524-1.552-5.795C233.908 18.41 232.173 18 230 18h-2v15.5ZM410.5 21c1.132 0 2.414.153 3.5.5l-1 9c-.647-.231-1.96-.5-3-.5-2.242 0-3.713.96-4.915 2.74-1.201 1.756-1.585 4.386-1.585 7.76V60H394V22h7.5l1 5h.5c1.017-2.427 2.132-3.447 3.333-4.487 1.202-1.04 2.572-1.513 4.167-1.513ZM284.75 61c-4.83 0-8.703-1.83-11.5-5.25-2.773-3.444-4.25-8.714-4.25-15 0-6.379 1.231-10.918 3.75-14.5 2.519-3.582 5.993-5.25 10.5-5.25 4.206 0 7.573 1.676 10 4.75 2.427 3.05 3.25 7.226 3.25 12.75v5h-18.29c.069 3.444.925 5.857 2.265 7.544 1.341 1.665 2.918 2.456 5.275 2.456 3.005 0 6.607-1.128 9.75-3V58c-2.958 1.78-6.613 3-10.75 3Zm-1.5-33c-1.317 0-2.645.84-3.5 2.25-.855 1.387-1.611 3.815-1.75 6.75h10.5c-.046-2.82-1.191-5.294-2-6.75-.809-1.456-1.84-2.25-3.25-2.25ZM317.23 60.994c-1.664 0-3.143-.37-4.438-1.11-1.271-.762-2.183-1.989-3.292-3.884h-.5c.37 3.143.5 4.853.5 5.5v16H300V22h7.041l1.5 5h.5c1.918-3.837 4.848-6 8.5-6 3.513 0 6.262 1.76 8.25 5.25 1.987 3.467 3.25 8.394 3.25 14.75 0 6.263-1.443 10.94-3.5 14.5-2.057 3.56-4.752 5.494-8.311 5.494ZM314.25 28.5c-1.803 0-2.971 1.131-3.78 2.818-1.364 2.888-1.47 6.302-1.47 9.432 0 4.253.626 7.452 1.435 9.393.809 1.941 1.943 2.857 3.815 2.857 3.236 0 5.25-4.068 5.25-12.25 0-4.022-.594-6.993-1.403-8.981-.786-1.988-2.16-3.269-3.847-3.269ZM349.23 60.994c-1.664 0-3.143-.37-4.438-1.11-1.271-.762-2.183-1.989-3.292-3.884h-.5c.37 3.143.5 4.853.5 5.5v16H332V22h7.041l1.5 5h.5c1.918-3.837 4.848-6 8.5-6 3.513 0 6.262 1.76 8.25 5.25 1.987 3.467 3.25 8.394 3.25 14.75 0 6.263-1.443 10.94-3.5 14.5-2.057 3.56-4.752 5.494-8.311 5.494ZM346.25 28.5c-1.803 0-2.971 1.131-3.78 2.818-1.364 2.888-1.47 6.302-1.47 9.432 0 4.253.626 7.452 1.435 9.393.809 1.941 1.943 2.857 3.815 2.857 3.236 0 5.25-4.068 5.25-12.25 0-4.022-.594-6.993-1.403-8.981-.786-1.988-2.16-3.269-3.847-3.269ZM379.25 61c-4.83 0-8.703-1.83-11.5-5.25-2.773-3.444-4.25-8.714-4.25-15 0-6.379 1.231-10.918 3.75-14.5 2.519-3.582 5.993-5.25 10.5-5.25 4.206 0 7.573 1.676 10 4.75 2.427 3.05 3.25 7.226 3.25 12.75v5h-18.29c.069 3.444.925 5.857 2.265 7.544 1.341 1.665 2.918 2.456 5.275 2.456 3.005 0 6.607-1.128 9.75-3V58c-2.958 1.78-6.613 3-10.75 3Zm-1.5-33c-1.317 0-2.645.84-3.5 2.25-.855 1.387-1.611 3.815-1.75 6.75H383c-.046-2.82-1.191-5.294-2-6.75-.809-1.456-1.84-2.25-3.25-2.25ZM265.5 21c1.132 0 2.414.153 3.5.5l-1 9c-.647-.231-1.96-.5-3-.5-2.242 0-3.713.96-4.915 2.74-1.201 1.756-1.585 4.386-1.585 7.76V60H249V22h7.5l1 5h.5c1.017-2.427 2.132-3.447 3.333-4.487 1.202-1.04 2.572-1.513 4.167-1.513Z" fill="currentColor" class="colorB"/><path d="M126.5 34.5c0 8.367-1.972 14.742-5.393 19.18-3.397 4.414-8.228 6.32-14.63 6.32h-12.48V9H107.5c5.893 0 10.533 2.8 13.815 7.168 3.282 4.346 5.185 10.474 5.185 18.332Zm-10 0c0-11.325-3.01-17-9.25-17h-3.75V52h3c3.444 0 5.963-1.383 7.604-4.249 1.641-2.889 2.396-7.473 2.396-13.251ZM148.481 60 147 55h-.5c-1.364 2.265-2.838 3.856-4.294 4.711-1.456.855-3.237 1.289-5.456 1.289-2.843 0-5.141-1.069-6.782-3.195-1.618-2.127-2.468-5.265-2.468-9.055 0-4.068 1.151-6.904 3.37-8.869 2.242-1.987 5.581-3.085 10.019-3.293L146 36.5V34c0-3.605-1.63-6-4.75-6-2.311 0-4.996 1.197-8 3L130 24.5c3.836-2.427 8.243-3.5 12.75-3.5 4.091 0 7.141 1.062 9.267 3.42 2.15 2.334 3.483 5.531 3.483 9.83V60h-7.019Zm-8.008-6.217c1.687 0 3.027-.751 4.021-2.253 1.017-1.526 1.526-3.548 1.526-6.067v-3.259l-2.843.139c-2.103.115-3.652.716-4.646 1.802-.97 1.087-1.456 2.705-1.456 4.854 0 3.19 1.133 4.784 3.398 4.784ZM173.271 53.194c1.295 0 2.727-.547 4.229-1.194v7.5c-1.502 1.04-3.746 1.5-6.75 1.5-3.351 0-5.88-1-7.498-2.987C161.634 56.002 161 52.998 161 49V28.996h-4V24.5l5-2.5 2.258-8.64h5.893l-.12 8.658L177 22v6.996h-7V49.25c0 2.589 1.191 3.944 3.271 3.944ZM199.5 60l-1.5-5h-.5c-1.364 2.265-2.646 3.856-4.102 4.711C191.942 60.566 190.219 61 188 61c-2.843 0-5.199-1.069-6.84-3.195-1.617-2.127-2.66-5.015-2.66-8.805 0-4.068 1.343-7.154 3.562-9.119 2.242-1.987 5.5-3.173 9.938-3.381h5v-3c0-3.605-1.38-5.5-4.5-5.5-2.311 0-4.996 1.197-8 3l-3.5-6.5c3.836-2.427 8.243-3.5 12.75-3.5 4.091 0 7.333 1.062 9.459 3.42 2.15 2.334 3.291 5.281 3.291 9.58v26h-7Zm-7.835-6.217c1.687 0 3.027-.751 4.021-2.253 1.017-1.526 1.526-3.548 1.526-6.067v-3.259l-2.843.139c-2.103.115-3.652.716-4.646 1.802-.97 1.087-1.456 2.705-1.456 4.854 0 3.19 1.133 4.784 3.398 4.784Z" fill="currentColor" class="colorA"/><path fill-rule="evenodd" clip-rule="evenodd" d="M48.808 35.796a13.669 13.669 0 0 0 18.334-.912 13.69 13.69 0 0 0 0-19.352 13.67 13.67 0 0 0-19.34 0 13.69 13.69 0 0 0-4.004 9.842V49.21c-.01.089-.015.179-.015.27 0 3.15-.776 6.252-2.26 9.03a19.148 19.148 0 0 1-6.245 6.898 19.122 19.122 0 0 1-25.422-3.775 19.165 19.165 0 0 1-3.52-17.715 19.16 19.16 0 0 1 4.78-7.984 2.505 2.505 0 0 0-3.544-3.541A24.17 24.17 0 0 0 .965 54.194 24.175 24.175 0 0 0 5.98 64.81a24.128 24.128 0 0 0 32.082 4.763 24.18 24.18 0 0 0 10.73-19.933c.01-.09.015-.182.015-.275V35.796Zm8.663-19.263a8.66 8.66 0 0 0-6.125 2.54 8.68 8.68 0 0 0-2.538 6.14v.127a8.68 8.68 0 0 0 2.538 6.003 8.66 8.66 0 0 0 12.251 0 8.68 8.68 0 0 0 0-12.27 8.66 8.66 0 0 0-6.126-2.54Z" fill="currentcolor" class="colorB"/><path fill-rule="evenodd" clip-rule="evenodd" d="M62.489 6.164a19.042 19.042 0 0 0-8.671-.285 19.077 19.077 0 0 0-7.904 3.593 19.167 19.167 0 0 0-5.508 6.734 19.24 19.24 0 0 0-1.971 8.367c.003.057.005.116.005.174v24.496a2.5 2.5 0 0 1-.143.838 13.728 13.728 0 0 1-3.95 8.531 13.63 13.63 0 0 1-19.326 0 13.702 13.702 0 0 1-3.999-9.683 13.73 13.73 0 0 1 3.999-9.684 13.66 13.66 0 0 1 9.663-4.015 13.63 13.63 0 0 1 8.746 3.176V24.873a2.555 2.555 0 0 1-.006-.18c0-3.71.85-7.37 2.486-10.697a24.176 24.176 0 0 1 6.948-8.494 24.087 24.087 0 0 1 9.98-4.536 24.052 24.052 0 0 1 10.952.36 24.098 24.098 0 0 1 9.662 5.181 24.19 24.19 0 0 1 6.379 8.93 24.256 24.256 0 0 1-1.395 21.349 2.505 2.505 0 0 1-4.343-2.499A19.234 19.234 0 0 0 75.2 17.35a19.179 19.179 0 0 0-5.058-7.082 19.088 19.088 0 0 0-7.653-4.104ZM24.684 40.24a8.621 8.621 0 0 0-6.115 2.541 8.693 8.693 0 0 0-2.537 6.147 8.722 8.722 0 0 0 2.537 6.146 8.621 8.621 0 0 0 12.23 0 8.693 8.693 0 0 0 2.536-6.146 8.721 8.721 0 0 0-2.537-6.147 8.621 8.621 0 0 0-6.115-2.542Z" fill="currentcolor" class="colorA"/></svg>